<?xml version="1.0" encoding="UTF-8" standalone="no"?>
<!DOCTYPE svg PUBLIC "-//W3C//DTD SVG 1.1//EN" "http://www.w3.org/Graphics/SVG/1.1/DTD/svg11.dtd"[]>
<!-- Generated by graphviz version 2.47.1 (20210417.1919)
 -->
<!-- Title: IDriva Pages: 1 -->
<svg width="91pt" height="336pt" viewBox="0.00 0.00 90.89 336.00" xmlns="http://www.w3.org/2000/svg" xmlns:xlink="http://www.w3.org/1999/xlink">
  <g id="graph0" class="graph" transform="scale(1 1) rotate(0) translate(4 332)">
    <title>IDriva</title>
    <polygon fill="white" stroke="transparent" points="-4,4 -4,-332 86.89,-332 86.89,4 -4,4" />
    <!-- manual -->
    <g id="node1" class="node">
      <title>manual</title>
      <ellipse fill="#d9ebff" stroke="#0077ff" cx="41.44" cy="-310" rx="39.43" ry="18" />
      <text text-anchor="middle" x="41.44" y="-305.8" font-family="Times New Roman,serif" font-size="14.00">manual</text>
    </g>
    <!-- Compose -->
    <g id="node2" class="node">
      <title>Compose</title>
      <polygon fill="#eee9ff" stroke="#8c6cff" points="7,-219.5 7,-255.5 75.89,-255.5 75.89,-219.5 7,-219.5" />
      <text text-anchor="middle" x="41.44" y="-233.3" font-family="Times New Roman,serif" font-size="14.00">Compose</text>
    </g>
    <!-- manual&#45;&gt;Compose -->
    <g id="edge1" class="edge">
      <title>manual-&gt;Compose</title>
      <path fill="none" stroke="black" d="M41.44,-291.93C41.44,-284.17 41.44,-274.78 41.44,-266.06" />
      <polygon fill="black" stroke="black" points="44.94,-265.9 41.44,-255.9 37.94,-265.9 44.94,-265.9" />
    </g>
    <!-- HTTP -->
    <g id="node3" class="node">
      <title>HTTP</title>
      <polygon fill="white" stroke="blue" points="14.44,-146.5 14.44,-182.5 68.44,-182.5 68.44,-146.5 14.44,-146.5" />
      <text text-anchor="middle" x="41.44" y="-160.3" font-family="Times New Roman,serif" font-size="14.00">HTTP</text>
    </g>
    <!-- Compose&#45;&gt;HTTP -->
    <g id="edge2" class="edge">
      <title>Compose-&gt;HTTP</title>
      <path fill="none" stroke="black" d="M41.44,-219.31C41.44,-211.29 41.44,-201.55 41.44,-192.57" />
      <polygon fill="black" stroke="black" points="44.94,-192.53 41.44,-182.53 37.94,-192.53 44.94,-192.53" />
    </g>
    <!-- Compose_2 -->
    <g id="node4" class="node">
      <title>Compose_2</title>
      <polygon fill="#eee9ff" stroke="#8c6cff" points="0,-73.5 0,-109.5 82.89,-109.5 82.89,-73.5 0,-73.5" />
      <text text-anchor="middle" x="41.44" y="-87.3" font-family="Times New Roman,serif" font-size="14.00">Compose_2</text>
    </g>
    <!-- HTTP&#45;&gt;Compose_2 -->
    <g id="edge3" class="edge">
      <title>HTTP-&gt;Compose_2</title>
      <path fill="none" stroke="black" d="M41.44,-146.31C41.44,-138.29 41.44,-128.55 41.44,-119.57" />
      <polygon fill="black" stroke="black" points="44.94,-119.53 41.44,-109.53 37.94,-119.53 44.94,-119.53" />
    </g>
    <!-- Response -->
    <g id="node5" class="node">
      <title>Response</title>
      <polygon fill="white" stroke="blue" points="6.62,-0.5 6.62,-36.5 76.27,-36.5 76.27,-0.5 6.62,-0.5" />
      <text text-anchor="middle" x="41.44" y="-14.3" font-family="Times New Roman,serif" font-size="14.00">Response</text>
    </g>
    <!-- Compose_2&#45;&gt;Response -->
    <g id="edge4" class="edge">
      <title>Compose_2-&gt;Response</title>
      <path fill="none" stroke="black" d="M41.44,-73.31C41.44,-65.29 41.44,-55.55 41.44,-46.57" />
      <polygon fill="black" stroke="black" points="44.94,-46.53 41.44,-36.53 37.94,-46.53 44.94,-46.53" />
    </g>
  </g>
</svg>